<mxfile host="65bd71144e">
    <diagram id="capf_uy1sKUgn0UFzP4P" name="Page-1">
        <mxGraphModel dx="1051" dy="790" grid="1" gridSize="10" guides="1" tooltips="1" connect="1" arrows="1" fold="1" page="1" pageScale="1" pageWidth="827" pageHeight="1169" background="#ffffff" math="0" shadow="1">
            <root>
                <mxCell id="0"/>
                <mxCell id="1" parent="0"/>
                <mxCell id="2" value="&lt;p style=&quot;box-sizing: border-box ; margin: 0px ; padding: 0px ; color: rgb(0 , 0 , 0) ; font-family: &amp;#34;helvetica neue&amp;#34; , &amp;#34;helvetica&amp;#34; , &amp;#34;pingfang sc&amp;#34; , &amp;#34;hiragino sans gb&amp;#34; , &amp;#34;microsoft yahei&amp;#34; , &amp;#34;\5 fae8f6f96c59ed1&amp;#34; , &amp;#34;arial&amp;#34; , sans-serif ; font-size: 16px ; background-color: rgb(255 , 255 , 255) ; line-height: 1.2&quot;&gt;&lt;span style=&quot;box-sizing: border-box ; color: rgb(25 , 25 , 25) ; font-size: 10pt&quot;&gt;QL/QR：&lt;/span&gt;&lt;/p&gt;&lt;p style=&quot;box-sizing: border-box ; margin: 0px ; padding: 0px ; color: rgb(0 , 0 , 0) ; font-family: &amp;#34;helvetica neue&amp;#34; , &amp;#34;helvetica&amp;#34; , &amp;#34;pingfang sc&amp;#34; , &amp;#34;hiragino sans gb&amp;#34; , &amp;#34;microsoft yahei&amp;#34; , &amp;#34;\5 fae8f6f96c59ed1&amp;#34; , &amp;#34;arial&amp;#34; , sans-serif ; font-size: 16px ; background-color: rgb(255 , 255 , 255) ; line-height: 1.2&quot;&gt;&lt;span style=&quot;box-sizing: border-box ; color: rgb(25 , 25 , 25) ; font-size: 10pt&quot;&gt;使用链表设计线程安全队列，对其头节点和为节点分别上锁，减小临界区间。&lt;/span&gt;&lt;/p&gt;&lt;p style=&quot;box-sizing: border-box ; margin: 0px ; padding: 0px ; color: rgb(0 , 0 , 0) ; font-family: &amp;#34;helvetica neue&amp;#34; , &amp;#34;helvetica&amp;#34; , &amp;#34;pingfang sc&amp;#34; , &amp;#34;hiragino sans gb&amp;#34; , &amp;#34;microsoft yahei&amp;#34; , &amp;#34;\5 fae8f6f96c59ed1&amp;#34; , &amp;#34;arial&amp;#34; , sans-serif ; font-size: 16px ; background-color: rgb(255 , 255 , 255) ; line-height: 1.2&quot;&gt;&lt;span style=&quot;box-sizing: border-box ; color: rgb(25 , 25 , 25) ; font-size: 10pt&quot;&gt;对front接口使用条件变量，队列空时进入睡眠，有新数据来时唤醒&lt;/span&gt;&lt;/p&gt;" style="rounded=0;whiteSpace=wrap;html=1;" parent="1" vertex="1">
                    <mxGeometry x="620" y="40" width="480" height="80" as="geometry"/>
                </mxCell>
                <mxCell id="5" value="" style="edgeStyle=none;html=1;" parent="1" source="3" target="4" edge="1">
                    <mxGeometry relative="1" as="geometry"/>
                </mxCell>
                <mxCell id="3" value="&lt;p style=&quot;box-sizing: border-box ; margin: 0px ; padding: 0px ; color: rgb(0 , 0 , 0) ; font-family: &amp;#34;helvetica neue&amp;#34; , &amp;#34;helvetica&amp;#34; , &amp;#34;pingfang sc&amp;#34; , &amp;#34;hiragino sans gb&amp;#34; , &amp;#34;microsoft yahei&amp;#34; , &amp;#34;\5 fae8f6f96c59ed1&amp;#34; , &amp;#34;arial&amp;#34; , sans-serif ; font-size: 16px ; background-color: rgb(255 , 255 , 255) ; line-height: 1.2&quot;&gt;&lt;span style=&quot;box-sizing: border-box ; color: rgb(25 , 25 , 25) ; font-size: 10pt&quot;&gt;创建线程池，和ql向量&lt;/span&gt;&lt;/p&gt;&lt;p style=&quot;box-sizing: border-box ; margin: 0px ; padding: 0px ; color: rgb(0 , 0 , 0) ; font-family: &amp;#34;helvetica neue&amp;#34; , &amp;#34;helvetica&amp;#34; , &amp;#34;pingfang sc&amp;#34; , &amp;#34;hiragino sans gb&amp;#34; , &amp;#34;microsoft yahei&amp;#34; , &amp;#34;\5 fae8f6f96c59ed1&amp;#34; , &amp;#34;arial&amp;#34; , sans-serif ; font-size: 16px ; background-color: rgb(255 , 255 , 255) ; line-height: 1.2&quot;&gt;&lt;span style=&quot;box-sizing: border-box ; color: rgb(25 , 25 , 25) ; font-size: 10pt&quot;&gt;（数目等于cpu核数，线程进入睡眠）&lt;/span&gt;&lt;/p&gt;" style="rounded=0;whiteSpace=wrap;html=1;" parent="1" vertex="1">
                    <mxGeometry x="260" y="50" width="240" height="60" as="geometry"/>
                </mxCell>
                <mxCell id="7" value="" style="edgeStyle=none;html=1;" parent="1" source="4" target="6" edge="1">
                    <mxGeometry relative="1" as="geometry"/>
                </mxCell>
                <mxCell id="4" value="&lt;span style=&quot;color: rgb(25 , 25 , 25) ; font-size: 13.3333px ; background-color: rgb(255 , 255 , 255)&quot;&gt;将x[i,j]放入不同ql中&lt;/span&gt;" style="whiteSpace=wrap;html=1;rounded=0;" parent="1" vertex="1">
                    <mxGeometry x="320" y="190" width="120" height="40" as="geometry"/>
                </mxCell>
                <mxCell id="10" style="edgeStyle=none;html=1;entryX=0.5;entryY=1;entryDx=0;entryDy=0;" parent="1" source="6" target="8" edge="1">
                    <mxGeometry relative="1" as="geometry">
                        <Array as="points">
                            <mxPoint x="160" y="330"/>
                        </Array>
                    </mxGeometry>
                </mxCell>
                <mxCell id="11" value="否" style="edgeLabel;html=1;align=center;verticalAlign=middle;resizable=0;points=[];" parent="10" vertex="1" connectable="0">
                    <mxGeometry x="-0.1" y="-1" relative="1" as="geometry">
                        <mxPoint as="offset"/>
                    </mxGeometry>
                </mxCell>
                <mxCell id="13" value="" style="edgeStyle=none;html=1;" parent="1" source="6" target="12" edge="1">
                    <mxGeometry relative="1" as="geometry"/>
                </mxCell>
                <mxCell id="14" value="是" style="edgeLabel;html=1;align=center;verticalAlign=middle;resizable=0;points=[];" parent="13" vertex="1" connectable="0">
                    <mxGeometry x="-0.3111" y="5" relative="1" as="geometry">
                        <mxPoint as="offset"/>
                    </mxGeometry>
                </mxCell>
                <mxCell id="6" value="&#10;&#10;&lt;span style=&quot;color: rgb(25, 25, 25); font-size: 13.3333px; font-style: normal; font-weight: 400; letter-spacing: normal; text-align: center; text-indent: 0px; text-transform: none; word-spacing: 0px; background-color: rgb(255, 255, 255); display: inline; float: none;&quot;&gt;ql数据 &amp;gt; num&lt;/span&gt;&#10;&#10;" style="rhombus;whiteSpace=wrap;html=1;rounded=0;" parent="1" vertex="1">
                    <mxGeometry x="320" y="290" width="120" height="80" as="geometry"/>
                </mxCell>
                <mxCell id="8" value="&lt;span style=&quot;color: rgb(25 , 25 , 25) ; font-size: 13.3333px ; background-color: rgb(255 , 255 , 255)&quot;&gt;读取数据数据&lt;/span&gt;" style="whiteSpace=wrap;html=1;rounded=0;" parent="1" vertex="1">
                    <mxGeometry x="100" y="210" width="120" height="60" as="geometry"/>
                </mxCell>
                <mxCell id="17" value="" style="edgeStyle=none;html=1;" parent="1" source="12" target="16" edge="1">
                    <mxGeometry relative="1" as="geometry"/>
                </mxCell>
                <mxCell id="12" value="&lt;span style=&quot;color: rgb(25 , 25 , 25) ; font-size: 13.3333px ; background-color: rgb(255 , 255 , 255)&quot;&gt;交换ql内数据到线程，并唤醒线程&lt;/span&gt;" style="whiteSpace=wrap;html=1;rounded=0;" parent="1" vertex="1">
                    <mxGeometry x="265" y="430" width="230" height="40" as="geometry"/>
                </mxCell>
                <mxCell id="19" value="" style="edgeStyle=none;html=1;" parent="1" source="16" target="18" edge="1">
                    <mxGeometry relative="1" as="geometry"/>
                </mxCell>
                <mxCell id="16" value="&#10;&#10;&lt;span style=&quot;color: rgb(25, 25, 25); font-size: 13.3333px; font-style: normal; font-weight: 400; letter-spacing: normal; text-align: center; text-indent: 0px; text-transform: none; word-spacing: 0px; background-color: rgb(255, 255, 255); display: inline; float: none;&quot;&gt;读取ql，保持到小堆堆顶&lt;/span&gt;&#10;&#10;" style="whiteSpace=wrap;html=1;rounded=0;" parent="1" vertex="1">
                    <mxGeometry x="290" y="540" width="180" height="60" as="geometry"/>
                </mxCell>
                <mxCell id="20" style="edgeStyle=none;html=1;entryX=0;entryY=0.5;entryDx=0;entryDy=0;" parent="1" source="18" target="16" edge="1">
                    <mxGeometry relative="1" as="geometry">
                        <Array as="points">
                            <mxPoint x="200" y="705"/>
                            <mxPoint x="200" y="570"/>
                        </Array>
                    </mxGeometry>
                </mxCell>
                <mxCell id="21" value="否" style="edgeLabel;html=1;align=center;verticalAlign=middle;resizable=0;points=[];" parent="20" vertex="1" connectable="0">
                    <mxGeometry x="0.1541" y="1" relative="1" as="geometry">
                        <mxPoint as="offset"/>
                    </mxGeometry>
                </mxCell>
                <mxCell id="24" value="" style="edgeStyle=none;html=1;" parent="1" source="18" target="23" edge="1">
                    <mxGeometry relative="1" as="geometry"/>
                </mxCell>
                <mxCell id="25" value="是" style="edgeLabel;html=1;align=center;verticalAlign=middle;resizable=0;points=[];" parent="24" vertex="1" connectable="0">
                    <mxGeometry x="-0.6" y="-1" relative="1" as="geometry">
                        <mxPoint as="offset"/>
                    </mxGeometry>
                </mxCell>
                <mxCell id="18" value="&#10;&#10;&lt;p style=&quot;box-sizing: border-box; margin: 0px; padding: 0px; color: rgb(0, 0, 0); font-family: &amp;quot;helvetica neue&amp;quot;, helvetica, &amp;quot;pingfang sc&amp;quot;, &amp;quot;hiragino sans gb&amp;quot;, &amp;quot;microsoft yahei&amp;quot;, &amp;quot;\5 fae8f6f96c59ed1&amp;quot;, arial, sans-serif; font-size: 16px; font-style: normal; font-weight: 400; letter-spacing: normal; text-indent: 0px; text-transform: none; word-spacing: 0px; background-color: rgb(255, 255, 255); text-align: center; line-height: 1.2;&quot;&gt;&lt;span style=&quot;box-sizing: border-box ; color: rgb(25 , 25 , 25) ; font-size: 10pt&quot;&gt;堆顶元素X[i, j]是否满足&lt;/span&gt;&lt;/p&gt;&lt;p style=&quot;box-sizing: border-box; margin: 0px; padding: 0px; color: rgb(0, 0, 0); font-family: &amp;quot;helvetica neue&amp;quot;, helvetica, &amp;quot;pingfang sc&amp;quot;, &amp;quot;hiragino sans gb&amp;quot;, &amp;quot;microsoft yahei&amp;quot;, &amp;quot;\5 fae8f6f96c59ed1&amp;quot;, arial, sans-serif; font-size: 16px; font-style: normal; font-weight: 400; letter-spacing: normal; text-indent: 0px; text-transform: none; word-spacing: 0px; background-color: rgb(255, 255, 255); text-align: center; line-height: 1.2;&quot;&gt;&lt;span style=&quot;box-sizing: border-box ; color: rgb(25 , 25 , 25) ; font-size: 10pt&quot;&gt;X.j == Y.j + 1 &lt;/span&gt;&lt;/p&gt;&#10;&#10;" style="rhombus;whiteSpace=wrap;html=1;rounded=0;" parent="1" vertex="1">
                    <mxGeometry x="280" y="650" width="200" height="110" as="geometry"/>
                </mxCell>
                <mxCell id="27" value="" style="edgeStyle=none;html=1;" parent="1" source="23" target="26" edge="1">
                    <mxGeometry relative="1" as="geometry"/>
                </mxCell>
                <mxCell id="23" value="&lt;span style=&quot;color: rgb(25 , 25 , 25) ; font-size: 13.3333px ; background-color: rgb(255 , 255 , 255)&quot;&gt;更新Y= F(Y[i, j-1],X[i, j])&lt;/span&gt;" style="whiteSpace=wrap;html=1;rounded=0;" parent="1" vertex="1">
                    <mxGeometry x="570" y="677.5" width="160" height="55" as="geometry"/>
                </mxCell>
                <mxCell id="26" value="&lt;span style=&quot;color: rgb(25 , 25 , 25) ; font-size: 13.3333px ; background-color: rgb(255 , 255 , 255)&quot;&gt;输出到qr&lt;/span&gt;" style="whiteSpace=wrap;html=1;rounded=0;" parent="1" vertex="1">
                    <mxGeometry x="590" y="200" width="120" height="60" as="geometry"/>
                </mxCell>
            </root>
        </mxGraphModel>
    </diagram>
</mxfile>